<svg xmlns="http://www.w3.org/2000/svg" width="40" height="50" viewBox="0 0 40 50"><defs><linearGradient id="12hla" x1="32.57" x2="40.62" y1="14.77" y2="6.84" gradientUnits="userSpaceOnUse"><stop offset="0" stop-color="#97aaaa"/><stop offset="1" stop-color="#e8efee"/></linearGradient><linearGradient id="12hlb" x1="20" x2="20" y1="17.59" y2="50" gradientUnits="userSpaceOnUse"><stop offset="0" stop-color="#fff"/><stop offset="1" stop-color="#e8efee"/></linearGradient><linearGradient id="12hlc" x1="20" x2="20" y1="47.03" y2="50.48" gradientUnits="userSpaceOnUse"><stop offset="0" stop-color="#c2cece" stop-opacity="0"/><stop offset=".18" stop-color="#afbcbc" stop-opacity=".18"/><stop offset="1" stop-color="#5b6a6a"/></linearGradient><linearGradient id="12hld" x1="15.61" x2="44.58" y1="27.71" y2="31.16" gradientUnits="userSpaceOnUse"><stop offset="0" stop-color="#c2cece" stop-opacity="0"/><stop offset=".18" stop-color="#afbcbc" stop-opacity=".18"/><stop offset="1" stop-color="#5b6a6a"/></linearGradient><linearGradient id="12hle" x1="20" x2="20" y1="15.85" y2="55.29" gradientUnits="userSpaceOnUse"><stop offset="0" stop-color="#c2cece" stop-opacity="0"/><stop offset=".18" stop-color="#afbcbc" stop-opacity=".18"/><stop offset="1" stop-color="#5b6a6a"/></linearGradient><linearGradient id="12hlf" x1="43.78" x2="20.66" y1="24.98" y2="2.15" gradientUnits="userSpaceOnUse"><stop offset="0" stop-color="#c2cece" stop-opacity="0"/><stop offset=".18" stop-color="#afbcbc" stop-opacity=".18"/><stop offset="1" stop-color="#5b6a6a"/></linearGradient><linearGradient id="12hlg" x1="23.87" x2="-9.35" y1="21.45" y2="-11.31" gradientUnits="userSpaceOnUse"><stop offset="0" stop-color="#c2cece" stop-opacity="0"/><stop offset=".18" stop-color="#afbcbc" stop-opacity=".18"/><stop offset="1" stop-color="#5b6a6a"/></linearGradient><linearGradient id="12hlh" x1="14.28" x2="14.28" y1="4.74" y2="28.7" gradientUnits="userSpaceOnUse"><stop offset="0" stop-color="#94cfff"/><stop offset=".43" stop-color="#4bafff"/><stop offset="1" stop-color="#0082ea"/></linearGradient><linearGradient id="12hli" x1="16.32" x2="18.47" y1="10.33" y2="10.33" gradientUnits="userSpaceOnUse"><stop offset="0" stop-color="#ffc200" stop-opacity="0"/><stop offset=".2" stop-color="#0082ea" stop-opacity=".2"/><stop offset=".48" stop-color="#0082ea" stop-opacity=".5"/><stop offset=".84" stop-color="#0082ea" stop-opacity=".85"/><stop offset="1" stop-color="#0082ea"/></linearGradient><linearGradient id="12hlj" x1="19.45" x2="23.83" y1="12.78" y2="12.78" gradientUnits="userSpaceOnUse"><stop offset="0" stop-color="#ffc200" stop-opacity="0"/><stop offset=".2" stop-color="#0082ea" stop-opacity=".2"/><stop offset=".48" stop-color="#0082ea" stop-opacity=".5"/><stop offset=".84" stop-color="#0082ea" stop-opacity=".85"/><stop offset="1" stop-color="#0082ea"/></linearGradient><linearGradient id="12hlk" x1="14.41" x2="16.37" y1="14.55" y2="14.55" gradientUnits="userSpaceOnUse"><stop offset="0" stop-color="#ffc200" stop-opacity="0"/><stop offset=".2" stop-color="#0082ea" stop-opacity=".2"/><stop offset=".48" stop-color="#0082ea" stop-opacity=".5"/><stop offset=".84" stop-color="#0082ea" stop-opacity=".85"/><stop offset="1" stop-color="#0082ea"/></linearGradient><linearGradient id="12hll" x1="15.37" x2="-5.4" y1="1.64" y2="4.57" gradientUnits="userSpaceOnUse"><stop offset="0" stop-color="#ffc200" stop-opacity="0"/><stop offset="0" stop-color="#fb0" stop-opacity=".2"/><stop offset=".23" stop-color="#3ba6fb" stop-opacity=".23"/><stop offset=".5" stop-color="#3ba6fb" stop-opacity=".5"/><stop offset=".83" stop-color="#3ba6fb" stop-opacity=".85"/><stop offset="1" stop-color="#3ba6fb"/></linearGradient><linearGradient id="12hlm" x1="28.43" x2="33.66" y1="14.98" y2="9.83" gradientUnits="userSpaceOnUse"><stop offset="0" stop-color="#fff"/><stop offset="1" stop-color="#e8efee"/></linearGradient></defs><g><g><g><path fill="url(#12hla)" d="M39.978 6.976V47.38c0 1.444-1.188 2.616-2.652 2.616H2.682C1.218 49.996.03 48.824.03 47.38V6.976c0-1.444 1.188-2.616 2.652-2.616h34.644c1.464 0 2.652 1.172 2.652 2.616z"/></g><g><path fill="url(#12hlb)" d="M26.627 4.36H2.682C1.217 4.36.03 5.531.03 6.976V47.38c0 1.445 1.187 2.616 2.652 2.616h34.644c1.464 0 2.652-1.171 2.652-2.616V16.843c0-.4-.16-.784-.445-1.07L29.188 5.417a3.62 3.62 0 0 0-2.561-1.057z"/></g><g><path fill="url(#12hlc)" d="M39.978 45.29v2.093c0 1.444-1.188 2.615-2.652 2.615H2.682c-1.464 0-2.652-1.171-2.652-2.615V45.29z"/></g><g><g><path fill="#c2cece" d="M6.81 20.34h26.374v1.781H6.81z"/></g><g><path fill="#c2cece" d="M6.81 27.15h26.374v1.781H6.81z"/></g><g><path fill="#c2cece" d="M6.81 33.95h26.374v1.781H6.81z"/></g><g><path fill="#c2cece" d="M6.81 40.75h15.91v1.781H6.81z"/></g></g><g><path fill="url(#12hld)" d="M20.004 4.36H2.409C1.095 4.36.03 5.531.03 6.976V47.38c0 1.445 1.065 2.616 2.38 2.616h17.594z"/></g><g><path fill="url(#12hle)" d="M39.978 27.146V6.739c0-1.314-1.188-2.379-2.652-2.379H2.682C1.217 4.36.03 5.425.03 6.74v20.406c0 .144 39.948 0 39.948 0z"/></g><g><path fill="url(#12hlf)" d="M28.131 5.93v7.673c0 .768.338 1.457.874 1.936L39.977 26.36V16.062L29.248 5.478c-.754-.806-1.69-1.118-2.708-1.118 0 0 1.591 1.533 1.591 1.57z"/></g><g><path fill="url(#12hlg)" d="M10.359 7.6v12.346c0 1.647.724 3.13 1.874 4.158L38.296 49.81a2.616 2.616 0 0 0 1.675-2.43V23.188L20.882 4.36H6.81z"/></g><g><path fill="url(#12hlh)" d="M21.736 7.75v12.1c0 3.14-2.605 5.763-5.787 5.71-3.091-.051-5.59-2.549-5.59-5.61V7.025c0-1.065.486-2.02 1.251-2.66a3.55 3.55 0 0 1 2.288-.831 3.55 3.55 0 0 1 2.288.83 3.466 3.466 0 0 1 1.252 2.66v8.874c0 .688-.566 1.247-1.264 1.247a1.256 1.256 0 0 1-1.265-1.247V7.06c0-.53-.405-.995-.941-1.03a1.007 1.007 0 0 0-1.081.995v12.854c0 1.745 1.447 3.218 3.216 3.188 1.718-.03 3.105-1.416 3.105-3.117V7.75a5.19 5.19 0 0 0-1.257-3.386 5.349 5.349 0 0 0-4.073-1.87c-1.6 0-3.073.687-4.078 1.87H6.81c.107-.222.228-.439.36-.65C8.61 1.387 11.117 0 13.877 0a7.878 7.878 0 0 1 7.068 4.364 7.628 7.628 0 0 1 .79 3.387z"/></g><g><path fill="url(#12hli)" d="M14.926 4.36a3.466 3.466 0 0 1 1.252 2.661v8.873c0 .461-.255.863-.633 1.079.186.106.402.168.633.168.698 0 1.264-.558 1.264-1.247V7.021c0-1.065-.487-2.02-1.252-2.66a3.55 3.55 0 0 0-2.92-.775 3.546 3.546 0 0 1 1.656.774z"/></g><g><path fill="url(#12hlj)" d="M20.951 4.364A7.878 7.878 0 0 0 13.25.025a7.874 7.874 0 0 1 6.437 4.34 7.626 7.626 0 0 1 .79 3.386v12.1c0 2.899-2.222 5.357-5.069 5.674.18.02.362.032.547.035 3.182.053 5.786-2.57 5.786-5.71V7.75a7.624 7.624 0 0 0-.79-3.386z"/></g><g><path fill="url(#12hlk)" d="M12.894 19.882V7.028a.99.99 0 0 1 .375-.774 1.007 1.007 0 0 0-1.639.773v12.855c0 1.745 1.448 3.218 3.216 3.187.2-.003.395-.026.584-.064a3.212 3.212 0 0 1-2.536-3.123z"/></g><g><path fill="url(#12hll)" d="M13.878 0c-2.76 0-5.268 1.388-6.709 3.713a7.16 7.16 0 0 0-.359.651H9.8a5.318 5.318 0 0 1 4.078-1.87c.06 0 .118.003.177.005V.003C13.996.002 13.938 0 13.878 0z"/></g><g><path fill="url(#12hlm)" d="M39.841 16.219s-.078-.22-.386-.524A58527.32 58527.32 0 0 1 29.248 5.478 3.828 3.828 0 0 0 26.54 4.36a1.58 1.58 0 0 1 1.591 1.57v7.673c0 1.444 1.188 2.615 2.652 2.615h9.058z"/></g></g></g></svg>