<svg xmlns="http://www.w3.org/2000/svg" width="50" height="48" viewBox="0 0 50 48"><defs><linearGradient id="wme7a" x1="24.95" x2="24.95" y1="8.93" y2="53.84" gradientUnits="userSpaceOnUse"><stop offset="0" stop-color="#94cfff"/><stop offset=".43" stop-color="#4bafff"/><stop offset="1" stop-color="#0082ea"/></linearGradient><linearGradient id="wme7b" x1="27.29" x2="33.49" y1="3.57" y2="27.67" gradientUnits="userSpaceOnUse"><stop offset="0" stop-color="#00a6f9"/><stop offset="1" stop-color="#0071e2"/></linearGradient><linearGradient id="wme7c" x1="31.86" x2="50.19" y1="19.96" y2="31.84" gradientUnits="userSpaceOnUse"><stop offset="0" stop-color="#00a6f9"/><stop offset="1" stop-color="#0071e2"/></linearGradient><linearGradient id="wme7d" x1="29.2" x2="40.49" y1="28.61" y2="49.87" gradientUnits="userSpaceOnUse"><stop offset="0" stop-color="#00a6f9"/><stop offset="1" stop-color="#0071e2"/></linearGradient><linearGradient id="wme7e" x1="13.23" x2="25.14" y1="28.55" y2="49.43" gradientUnits="userSpaceOnUse"><stop offset="0" stop-color="#00a6f9"/><stop offset="1" stop-color="#0071e2"/></linearGradient><linearGradient id="wme7f" x1="18.26" x2="31.07" y1="20.07" y2="20.07" gradientUnits="userSpaceOnUse"><stop offset="0" stop-color="#ffc200" stop-opacity="0"/><stop offset=".2" stop-color="#0082ea" stop-opacity=".2"/><stop offset=".48" stop-color="#0082ea" stop-opacity=".5"/><stop offset=".84" stop-color="#0082ea" stop-opacity=".85"/><stop offset="1" stop-color="#0082ea"/></linearGradient><linearGradient id="wme7g" x1="6.91" x2="25.24" y1="19.96" y2="31.84" gradientUnits="userSpaceOnUse"><stop offset="0" stop-color="#00a6f9"/><stop offset="1" stop-color="#0071e2"/></linearGradient></defs><g><g><g><path fill="url(#wme7a)" d="M26.788 1.197l6.6 13.442 14.76 2.155c1.679.246 2.35 2.32 1.134 3.51l-10.68 10.464 2.521 14.774c.287 1.68-1.468 2.963-2.97 2.17L24.95 40.735l-13.2 6.975c-1.503.794-3.259-.488-2.972-2.17l2.522-14.773L.62 20.305c-1.216-1.19-.545-3.265 1.134-3.51l14.76-2.156 6.6-13.442c.751-1.53 2.921-1.53 3.673 0z"/></g><g><path fill="url(#wme7b)" d="M33.387 14.639l-6.6-13.442A2.023 2.023 0 0 0 24.95.05v25.449z"/></g><g><path fill="url(#wme7c)" d="M38.6 30.764l10.68-10.463c.6-.587.74-1.39.527-2.081L24.95 25.495z"/></g><g><path fill="url(#wme7d)" d="M40.314 47.551L24.95 25.5v15.237l13.201 6.975a2.015 2.015 0 0 0 2.163-.161z"/></g><g><path fill="url(#wme7e)" d="M24.953 25.5l-13.65 5.269L8.78 45.543a2.038 2.038 0 0 0 .808 2.008z"/></g><g><path fill="url(#wme7f)" d="M.09 18.225L24.947 25.5 16.51 14.64 1.751 16.796A2.027 2.027 0 0 0 .09 18.225z"/></g><g><path fill="url(#wme7g)" d="M11.3 30.764L.62 20.301a2.04 2.04 0 0 1-.526-2.081l24.857 7.275z"/></g></g></g></svg>