<svg xmlns="http://www.w3.org/2000/svg" width="50" height="50" viewBox="0 0 50 50"><defs><linearGradient id="36kia" x1="6.71" x2="54.72" y1="3.24" y2="50.79" gradientUnits="userSpaceOnUse"><stop offset="0" stop-color="#fff"/><stop offset="1" stop-color="#e8efee"/></linearGradient><linearGradient id="36kib" x1="48.32" x2="-.11" y1="39.22" y2="43.03" gradientUnits="userSpaceOnUse"><stop offset="0" stop-color="#c2cece" stop-opacity="0"/><stop offset=".18" stop-color="#afbcbc" stop-opacity=".18"/><stop offset="1" stop-color="#5b6a6a"/></linearGradient><linearGradient id="36kic" x1="48.42" x2="37.03" y1="24.98" y2="13.62" gradientUnits="userSpaceOnUse"><stop offset="0" stop-color="#c2cece" stop-opacity="0"/><stop offset=".18" stop-color="#afbcbc" stop-opacity=".18"/><stop offset="1" stop-color="#5b6a6a"/></linearGradient><linearGradient id="36kid" x1="13.84" x2="50.59" y1="23.97" y2="52.58" gradientUnits="userSpaceOnUse"><stop offset="0" stop-color="#68cdff"/><stop offset="1" stop-color="#0071e2"/></linearGradient><linearGradient id="36kie" x1="14.59" x2="50.58" y1="32.95" y2="51.69" gradientUnits="userSpaceOnUse"><stop offset="0" stop-color="#00a6f9"/><stop offset="1" stop-color="#0071e2"/></linearGradient><linearGradient id="36kif" x1="38.19" x2="45.1" y1="4.23" y2="20.68" gradientUnits="userSpaceOnUse"><stop offset="0" stop-color="#d63305"/><stop offset=".37" stop-color="#cf3004"/><stop offset=".9" stop-color="#bc2602"/><stop offset="1" stop-color="#b72401"/></linearGradient><linearGradient id="36kig" x1="13.44" x2="-21.94" y1="9.9" y2="-25.16" gradientUnits="userSpaceOnUse"><stop offset="0" stop-color="#c2cece" stop-opacity="0"/><stop offset=".18" stop-color="#afbcbc" stop-opacity=".18"/><stop offset="1" stop-color="#5b6a6a"/></linearGradient></defs><g><g><g><path fill="#3f78de" d="M23.705.453L0 19.388v3.529h50v-3.53L26.295.454a2.08 2.08 0 0 0-2.59 0z"/></g><g><path fill="url(#36kia)" d="M45.855 42.708H4.138A2.049 2.049 0 0 1 2.08 40.67V2.04C2.08.913 3.002 0 4.138 0h41.717c1.137 0 2.058.913 2.058 2.04v38.63c0 1.125-.921 2.038-2.058 2.038z"/></g><g><path fill="url(#36kib)" d="M47.913 39.58v.781c0 1.294-1.077 2.344-2.403 2.344H4.483c-1.327 0-2.404-1.05-2.404-2.344v-.781z"/></g><g><g><path fill="#c2cece" d="M11.5 6.32h26.994v1.492H11.5z"/></g><g><path fill="#c2cece" d="M11.5 12.29h26.994v1.492H11.5z"/></g><g><path fill="#c2cece" d="M11.5 18.39h26.994v1.492H11.5z"/></g><g><path fill="#c2cece" d="M11.5 24.49h26.994v1.492H11.5z"/></g></g><g><path fill="url(#36kic)" d="M41.462 20.657a8.52 8.52 0 0 1-5.464-1.971l-.578.101 12.5 12.465V17.71a8.53 8.53 0 0 1-6.458 2.947z"/></g><g><path fill="url(#36kid)" d="M50 19.79v28.15a2.06 2.06 0 0 1-2.06 2.058H2.06A2.06 2.06 0 0 1 0 47.94V19.79l25.275 19.916z"/></g><g><path fill="url(#36kie)" d="M49.998 48.99L26.98 30.658a2.068 2.068 0 0 0-2.571 0L1.04 49.27c.376.448.943.733 1.577.733h45.61a2.05 2.05 0 0 0 1.771-1.012z"/></g><g><path fill="url(#36kif)" d="M41.663 20.837a8.333 8.333 0 1 0 0-16.667 8.333 8.333 0 0 0 0 16.667z"/></g><g><path fill="#fff" d="M39.58 9.67c0-.272.11-.486.33-.642l1.633-1.566a.577.577 0 0 1 .424-.172c.188 0 .358.05.51.149.152.099.228.232.228.399V18.2c0 .167-.084.3-.251.4-.168.099-.361.148-.581.148-.23 0-.427-.05-.59-.148-.162-.1-.243-.233-.243-.4V9.497l-.55.689a.48.48 0 0 1-.345.156.493.493 0 0 1-.4-.21.735.735 0 0 1-.165-.463z"/></g><g><path fill="url(#36kig)" d="M2.726 41.613V2.695C2.726 1.56 3.654.64 4.8.64h42.01c.406 0 .784.118 1.104.319A2.074 2.074 0 0 0 46.162 0H4.152C3.009 0 2.08.92 2.08 2.054v38.918c0 .732.387 1.372.968 1.736a2.03 2.03 0 0 1-.322-1.095z"/></g></g></g></svg>