<svg xmlns="http://www.w3.org/2000/svg" width="45" height="45" viewBox="0 0 45 45"><defs><linearGradient id="1yy1a" x1="39.04" x2="8.9" y1="8.28" y2="36.74" gradientUnits="userSpaceOnUse"><stop offset="0" stop-color="#ffe8d2"/><stop offset="1" stop-color="#ffcc7b"/></linearGradient><linearGradient id="1yy1b" x1="28.51" x2="20.42" y1="28.51" y2="20.42" gradientUnits="userSpaceOnUse"><stop offset="0" stop-color="#ff9102"/><stop offset="1" stop-color="#ffc200"/></linearGradient><linearGradient id="1yy1c" x1="23.8" x2="19.35" y1="26.26" y2="21.17" gradientUnits="userSpaceOnUse"><stop offset="0" stop-color="#8f5100"/><stop offset="1" stop-color="#a17b00"/></linearGradient><linearGradient id="1yy1d" x1="13.96" x2="29.31" y1="22.45" y2="22.45" gradientUnits="userSpaceOnUse"><stop offset="0" stop-color="#ffe2d9"/><stop offset="1" stop-color="#ffe8d9"/></linearGradient></defs><g><g><g><g><path fill="#ff9102" d="M45 22.5C45 34.926 34.926 45 22.5 45c-6.55 0-12.448-2.8-16.56-7.267a22.597 22.597 0 0 1-2.849-3.843A22.4 22.4 0 0 1 0 22.5C0 10.074 10.074 0 22.5 0c4.157 0 8.05 1.127 11.39 3.092a22.492 22.492 0 0 1 3.842 2.85A22.434 22.434 0 0 1 45 22.5z"/></g><g><path fill="url(#1yy1a)" d="M45.005 22.504c0 12.147-9.624 22.045-21.663 22.485C11.304 44.549 1.68 34.65 1.68 22.504 1.68 10.358 11.304.46 23.342.02c12.04.44 21.663 10.338 21.663 22.484z"/></g><g><path fill="url(#1yy1b)" d="M39.988 22.504c0 9.656-7.828 17.484-17.484 17.484a17.4 17.4 0 0 1-9.17-2.596 17.528 17.528 0 0 1-5.124-4.816 17.402 17.402 0 0 1-3.189-9.857l-.001-.215c0-9.656 7.827-17.484 17.484-17.484a17.418 17.418 0 0 1 12.362 5.12c.96.96 1.81 2.032 2.526 3.194a17.4 17.4 0 0 1 2.596 9.17z"/></g><g><path fill="#ac6100" d="M39.981 22.504c0 9.656-7.828 17.484-17.484 17.484-.331 0-.66-.01-.987-.028 9.197-.511 16.496-8.132 16.496-17.456S30.706 5.559 21.51 5.048c.327-.019.656-.028.987-.028 9.656 0 17.484 7.828 17.484 17.484z"/></g></g><g><path fill="url(#1yy1c)" d="M22.676 33.591c-4.707 0-7.906-2.83-9.106-7.044h-2.83V23.44h2.307c-.03-.308-.03-.615-.03-.984 0-.37 0-.739.03-1.108H10.74v-3.107h2.892c1.26-4.06 4.43-6.921 8.951-6.921 3.815 0 5.937 1.661 7.568 3.937l-3.569 2.708c-1.169-1.57-2.307-2.43-4.091-2.43-1.815 0-3.138.984-3.938 2.706h5.691v3.107h-6.398c-.03.339-.03.677-.03 1.108 0 .338 0 .676.03.984h6.398v3.107h-5.721c.8 1.815 2.184 2.83 4.153 2.83 1.784 0 2.799-.861 4.152-2.522l3.384 2.491c-1.815 2.554-3.999 4.245-7.536 4.245z"/></g><g><path fill="url(#1yy1d)" d="M24.786 33.591c-4.707 0-7.906-2.83-9.106-7.044h-2.83V23.44h2.307c-.03-.308-.03-.615-.03-.984 0-.37 0-.739.03-1.108H12.85v-3.107h2.892c1.26-4.06 4.43-6.921 8.951-6.921 3.815 0 5.937 1.661 7.568 3.937l-3.569 2.708c-1.169-1.57-2.307-2.43-4.091-2.43-1.815 0-3.138.984-3.938 2.706h5.691v3.107h-6.398c-.03.339-.03.677-.03 1.108 0 .338 0 .676.03.984h6.398v3.107h-5.721c.8 1.815 2.184 2.83 4.153 2.83 1.784 0 2.799-.861 4.152-2.522l3.384 2.491c-1.815 2.554-3.999 4.245-7.536 4.245z"/></g></g></g></svg>