<svg xmlns="http://www.w3.org/2000/svg" width="100" height="100" viewBox="0 0 100 100"><defs><clipPath id="fduka"><path d="M49.996.17A49.99 49.99 0 0 1 85.3 14.765 49.832 49.832 0 0 1 98.963 40.28a49.71 49.71 0 0 1 0 19.444 49.718 49.718 0 0 1-4.936 13.769A49.786 49.786 0 0 1 85.3 85.238a49.864 49.864 0 0 1-11.768 8.712 49.94 49.94 0 0 1-13.795 4.926 49.98 49.98 0 0 1-19.48 0 49.969 49.969 0 0 1-28.853-17.261A49.805 49.805 0 0 1 .31 54.886a49.71 49.71 0 0 1 1.91-19.35 49.74 49.74 0 0 1 6.264-13.22 49.807 49.807 0 0 1 9.84-10.835A49.891 49.891 0 0 1 30.89 3.963 49.958 49.958 0 0 1 45.103.41a49.99 49.99 0 0 1 4.893-.24z"/></clipPath><clipPath id="fdukb"><path d="M.07 50.002c0-3.272.32-6.513.96-9.722a49.641 49.641 0 0 1 2.84-9.348 49.68 49.68 0 0 1 4.614-8.615 49.732 49.732 0 0 1 6.21-7.552 49.787 49.787 0 0 1 7.565-6.197 49.837 49.837 0 0 1 8.631-4.605 49.877 49.877 0 0 1 9.366-2.835 49.898 49.898 0 0 1 9.74-.958c3.278 0 6.525.32 9.74.958a49.876 49.876 0 0 1 9.366 2.835 49.837 49.837 0 0 1 8.632 4.605 49.788 49.788 0 0 1 7.565 6.197 49.732 49.732 0 0 1 6.21 7.552 49.68 49.68 0 0 1 4.613 8.615 49.642 49.642 0 0 1 2.841 9.348c.64 3.21.96 6.45.96 9.722 0 3.272-.32 6.512-.96 9.722a49.642 49.642 0 0 1-2.84 9.348 49.68 49.68 0 0 1-4.615 8.615 49.732 49.732 0 0 1-6.209 7.551 49.789 49.789 0 0 1-7.565 6.198 49.838 49.838 0 0 1-8.632 4.605 49.879 49.879 0 0 1-9.366 2.835 49.899 49.899 0 0 1-9.74.958c-3.278 0-6.525-.32-9.74-.958a49.878 49.878 0 0 1-9.366-2.835 49.837 49.837 0 0 1-8.631-4.605 49.787 49.787 0 0 1-7.566-6.198 49.731 49.731 0 0 1-6.209-7.551 49.68 49.68 0 0 1-4.614-8.615 49.641 49.641 0 0 1-2.84-9.348"/></clipPath><clipPath id="fdukc"><path d="M78.571 90.862a49.839 49.839 0 0 1-9.468 5.175 49.878 49.878 0 0 1-9.365 2.835 49.899 49.899 0 0 1-9.74.958c-3.279 0-6.525-.32-9.74-.958a49.878 49.878 0 0 1-9.366-2.836 49.834 49.834 0 0 1-8.502-4.518l20.62-10.112c-.118-4.182-.235-2.75-.352-6.931 6.203 0 13.835-2.604 16.173-13.38h-.088c-3.04 6.953-8.739 9.256-16.481 9.256-16.063 0-14.998-13.083-12.657-25.267.478-6.32 3.17-26.13 14.064-26.67 31.795-3.906 28.59 9.9 24.186 28.866-2.208 9.509-4.717 20.315-3.267 30.836 0 3.727 6.937 8.933 13.983 12.746z"/></clipPath><clipPath id="fdukd"><path d="M.07 50.002c0-3.272.32-6.513.96-9.722a49.641 49.641 0 0 1 2.84-9.348 49.68 49.68 0 0 1 4.614-8.615 49.732 49.732 0 0 1 6.21-7.552 49.787 49.787 0 0 1 7.565-6.197 49.837 49.837 0 0 1 8.631-4.605 49.877 49.877 0 0 1 9.366-2.835 49.898 49.898 0 0 1 9.74-.958c3.278 0 6.525.32 9.74.958a49.876 49.876 0 0 1 9.366 2.835 49.837 49.837 0 0 1 8.632 4.605 49.788 49.788 0 0 1 7.565 6.197 49.732 49.732 0 0 1 6.21 7.552 49.68 49.68 0 0 1 4.613 8.615 49.642 49.642 0 0 1 2.841 9.348c.64 3.21.96 6.45.96 9.722 0 3.272-.32 6.512-.96 9.722a49.642 49.642 0 0 1-2.84 9.348 49.68 49.68 0 0 1-4.615 8.615 49.732 49.732 0 0 1-6.209 7.551 49.789 49.789 0 0 1-7.565 6.198 49.838 49.838 0 0 1-8.632 4.605 49.879 49.879 0 0 1-9.366 2.835 49.899 49.899 0 0 1-9.74.958c-3.278 0-6.525-.32-9.74-.958a49.878 49.878 0 0 1-9.366-2.835 49.837 49.837 0 0 1-8.631-4.605 49.787 49.787 0 0 1-7.566-6.198 49.731 49.731 0 0 1-6.209-7.551 49.68 49.68 0 0 1-4.614-8.615 49.641 49.641 0 0 1-2.84-9.348"/></clipPath></defs><g><g><g><path fill="#3b65ae" d="M49.996.17A49.99 49.99 0 0 1 85.3 14.765 49.832 49.832 0 0 1 98.963 40.28a49.71 49.71 0 0 1 0 19.444 49.718 49.718 0 0 1-4.936 13.769A49.786 49.786 0 0 1 85.3 85.238a49.864 49.864 0 0 1-11.768 8.712 49.94 49.94 0 0 1-13.795 4.926 49.98 49.98 0 0 1-19.48 0 49.969 49.969 0 0 1-28.853-17.261A49.805 49.805 0 0 1 .31 54.886a49.71 49.71 0 0 1 1.91-19.35 49.74 49.74 0 0 1 6.264-13.22 49.807 49.807 0 0 1 9.84-10.835A49.891 49.891 0 0 1 30.89 3.963 49.958 49.958 0 0 1 45.103.41a49.99 49.99 0 0 1 4.893-.24z"/></g><g clip-path="url(#fduka)"><g><g><g/><g clip-path="url(#fdukb)"><path fill="#1c4895" d="M29.781 49.582c-.604-5.651-6.711-24.232 5.186-24.232l.967 2.737-5.766 20.09"/></g></g><g><g><path fill="#fff" d="M29.603 45.084c-2.341 12.184-3.405 25.267 12.657 25.267 7.743 0 13.442-2.303 16.481-9.256h.088c-2.338 10.776-9.97 13.38-16.173 13.38.117 4.181.234 2.749.351 6.93L20.11 92.636c10.205 5.093 71.769 27.893 71.769 3.246-5.68 0-27.292-11.187-27.292-17.765-4.343-31.506 26.817-65.566-20.92-59.702-10.894.54-13.586 20.35-14.064 26.67"/></g></g><g><g/><g clip-path="url(#fdukc)"><path fill="#617cac" d="M35.936 83.122s12.295 12.155 33.45 1.21C90.54 73.387 80.982 95.495 80.982 95.495l-14.718 6.627-44.35-1.684-2.744-8.81z"/></g></g></g><g/><g clip-path="url(#fdukd)"><path fill="#1c4895" d="M33.5 23.073c-.028.824 1.02 1.587.99 2.47 4.09 1.154 15.612.728 21.802 4.884 3.718 2.496 3.41 9.847 4.198 11.17 1.764-.222 2.39-3.675 4.526-.922 1.284 1.005.107 12.798-3.137 9.467 0 1.017-.193 3.973.629 6.236.735 2.026 2.467 3.371 3.063 4.082.475.18.95.362 1.424.544 0-10.93 8.902-21.405 6.399-35.146-2.802-15.383-26.241-13.926-35.99-6.605-.542.407-3.873 2.93-3.903 3.82z"/></g></g></g></g></svg>