<svg xmlns="http://www.w3.org/2000/svg" width="50" height="50" viewBox="0 0 50 50"><defs><linearGradient id="1unqa" x1="13.1" x2="-2.92" y1="51.15" y2="35.1" gradientUnits="userSpaceOnUse"><stop offset="0" stop-color="#ffcf95"/><stop offset=".05" stop-color="#fed19a"/><stop offset="1" stop-color="#e8efee"/></linearGradient><linearGradient id="1unqb" x1="8.18" x2="9.02" y1="45.87" y2="48.21" gradientUnits="userSpaceOnUse"><stop offset="0" stop-color="#c69c6d" stop-opacity="0"/><stop offset="1" stop-color="#754c24"/></linearGradient><linearGradient id="1unqc" x1="15.29" x2="42.86" y1="12.7" y2="48.3" gradientUnits="userSpaceOnUse"><stop offset="0" stop-color="#00a6f9"/><stop offset="1" stop-color="#0071e2"/></linearGradient><linearGradient id="1unqd" x1="22.36" x2="25.63" y1="24.19" y2="27.47" gradientUnits="userSpaceOnUse"><stop offset="0" stop-color="#76c2ff"/><stop offset=".42" stop-color="#63baff"/><stop offset="1" stop-color="#3ba6fb"/></linearGradient><linearGradient id="1unqe" x1="19.91" x2="22" y1="22.53" y2="24.62" gradientUnits="userSpaceOnUse"><stop offset="0" stop-color="#9cd3ff"/><stop offset=".43" stop-color="#58b5ff"/><stop offset="1" stop-color="#3ba6fb"/></linearGradient><linearGradient id="1unqf" x1="45.27" x2="41.64" y1="4.64" y2="8.28" gradientUnits="userSpaceOnUse"><stop offset="0" stop-color="#d63305"/><stop offset=".37" stop-color="#cf3004"/><stop offset=".9" stop-color="#bc2602"/><stop offset="1" stop-color="#b72401"/></linearGradient><linearGradient id="1unqg" x1="48.42" x2="46.51" y1="10.98" y2="9.06" gradientUnits="userSpaceOnUse"><stop offset="0" stop-color="#960000"/><stop offset=".33" stop-color="#9c0700" stop-opacity=".67"/><stop offset=".81" stop-color="#ae1a01" stop-opacity=".19"/><stop offset="1" stop-color="#b72401" stop-opacity="0"/></linearGradient><linearGradient id="1unqh" x1="41.27" x2="39.94" y1="8.65" y2="9.98" gradientUnits="userSpaceOnUse"><stop offset="0" stop-color="#fff"/><stop offset="1" stop-color="#e8efee"/></linearGradient><linearGradient id="1unqi" x1="38.53" x2="37.66" y1="11.4" y2="12.26" gradientUnits="userSpaceOnUse"><stop offset="0" stop-color="#fff"/><stop offset="1" stop-color="#e8efee"/></linearGradient><linearGradient id="1unqj" x1="37.06" x2="39.01" y1="15.4" y2="13.56" gradientUnits="userSpaceOnUse"><stop offset="0" stop-color="#ffc200" stop-opacity="0"/><stop offset=".13" stop-color="#0082ea" stop-opacity=".2"/><stop offset=".48" stop-color="#0082ea" stop-opacity=".5"/><stop offset=".84" stop-color="#0082ea" stop-opacity=".85"/><stop offset="1" stop-color="#0082ea"/></linearGradient><linearGradient id="1unqk" x1="39.96" x2="38.82" y1="9.96" y2="11.1" gradientUnits="userSpaceOnUse"><stop offset="0" stop-color="#fff"/><stop offset="1" stop-color="#e8efee"/></linearGradient><linearGradient id="1unql" x1="2.39" x2=".31" y1="47.6" y2="49.69" gradientUnits="userSpaceOnUse"><stop offset="0" stop-color="#363f3e"/><stop offset="1" stop-color="#303033"/></linearGradient><linearGradient id="1unqm" x1="42.32" x2="44.89" y1="13.41" y2="15.98" gradientUnits="userSpaceOnUse"><stop offset="0" stop-color="#c2cece" stop-opacity="0"/><stop offset=".18" stop-color="#afbcbc" stop-opacity=".18"/><stop offset="1" stop-color="#5b6a6a"/></linearGradient><linearGradient id="1unqn" x1="36.35" x2="38.91" y1="7.43" y2="10" gradientUnits="userSpaceOnUse"><stop offset="0" stop-color="#c2cece" stop-opacity="0"/><stop offset=".55" stop-color="#c2cece"/><stop offset="1" stop-color="#c2cece" stop-opacity="0"/></linearGradient></defs><g><g><g><path fill="#c2cece" d="M36.546 50.004H.583a.413.413 0 0 1-.413-.414v-.528c0-.52.42-.942.94-.942h35.436a.94.94 0 1 1 0 1.884z"/></g><g><path fill="url(#1unqa)" d="M11.768 38.214L6.864 33.3 5.22 34.947a4.508 4.508 0 0 0-1.092 1.776L.033 49.171a.633.633 0 0 0 .799.8l12.423-4.103a4.498 4.498 0 0 0 1.773-1.094l1.644-1.646z"/></g><g><path fill="url(#1unqb)" d="M15.028 42.547a4.497 4.497 0 0 1-1.773 1.094L.832 47.744a.626.626 0 0 1-.338.017l-.461 1.402a.633.633 0 0 0 .799.8l12.423-4.103a4.499 4.499 0 0 0 1.773-1.094l1.644-1.646-1.108-1.11z"/></g><g><path fill="url(#1unqc)" d="M14.719 45.081a2.28 2.28 0 0 0 .667-1.615c0-.582-.223-1.167-.667-1.613l-.048-.048a2.272 2.272 0 0 0-1.966-.64.533.533 0 0 1-.465-.152.535.535 0 0 1-.152-.463v-.003c.008-.045.013-.091.018-.137l.005-.07a2.278 2.278 0 0 0-.662-1.762l-.048-.049-.086-.08a1.81 1.81 0 0 0-.196-.159 1.451 1.451 0 0 0-.172-.114l-.1-.054a1.617 1.617 0 0 0-.243-.11 2.233 2.233 0 0 0-.776-.15 2.228 2.228 0 0 0-.393.027.533.533 0 0 1-.465-.152.535.535 0 0 1-.151-.466 2.278 2.278 0 0 0-.64-1.97l-.048-.047a2.275 2.275 0 0 0-3.221 0L32.62 7.49l9.808 9.828z"/></g><g><path fill="url(#1unqd)" d="M39.158 14.046L12.24 41.016a.535.535 0 0 1-.152-.462v-.003c.008-.045.013-.091.018-.137 0-.024.003-.046.005-.07a2.278 2.278 0 0 0-.662-1.762l-.048-.049-.086-.08a1.803 1.803 0 0 0-.196-.159 1.455 1.455 0 0 0-.172-.114c-.033-.017-.066-.038-.1-.054a1.62 1.62 0 0 0-.243-.11 2.234 2.234 0 0 0-.906-.148c-.09.003-.176.011-.263.025a.533.533 0 0 1-.465-.152L35.889 10.77z"/></g><g><path fill="url(#1unqe)" d="M32.62 7.49L4.91 35.254a2.275 2.275 0 0 1 3.221 0l.048.048a2.278 2.278 0 0 1 .64 1.97.535.535 0 0 0 .151.465L35.89 10.766z"/></g><g><path fill="url(#1unqf)" d="M45.779 13.961L35.97 4.134l3.072-3.079a3.59 3.59 0 0 1 5.086 0l4.723 4.733a3.608 3.608 0 0 1 0 5.095z"/></g><g><path fill="url(#1unqg)" d="M42.53 10.706l3.252 3.258 3.072-3.078a3.608 3.608 0 0 0 0-5.096l-.709-.71z"/></g><g><path fill="url(#1unqh)" d="M46.211 13.518L36.403 3.69l-3.793 3.8 9.809 9.828z"/></g><g><path fill="url(#1unqi)" d="M43.683 16.058L33.874 6.23 32.61 7.497l9.809 9.827z"/></g><g><path fill="url(#1unqj)" d="M40.799 18.941L30.99 9.114l1.62-1.624 9.809 9.828z"/></g><g><path fill="url(#1unqk)" d="M44.953 14.788L35.144 4.96 33.88 6.227l9.809 9.828z"/></g><g><path fill="url(#1unql)" d="M1.07 46.01L.033 49.163a.633.633 0 0 0 .799.8l3.147-1.039z"/></g><g><path fill="url(#1unqm)" d="M46.214 13.518l-3.251-3.258-3.793 3.8 3.252 3.258z"/></g><g><path fill="url(#1unqn)" d="M41.244 8.538L37.993 5.28 34.2 9.08l3.252 3.258z"/></g></g></g></svg>