<svg xmlns="http://www.w3.org/2000/svg" width="52" height="50" viewBox="0 0 52 50"><defs><linearGradient id="p4dea" x1="22.32" x2="52.42" y1="7.3" y2="43.41" gradientUnits="userSpaceOnUse"><stop offset="0" stop-color="#c2cece"/><stop offset="1" stop-color="#97aaaa"/></linearGradient><linearGradient id="p4deb" x1="29.33" x2="29.33" y1="28.25" y2="31.21" gradientUnits="userSpaceOnUse"><stop offset="0" stop-color="#c2cece" stop-opacity="0"/><stop offset=".18" stop-color="#afbcbc" stop-opacity=".18"/><stop offset="1" stop-color="#5b6a6a"/></linearGradient><linearGradient id="p4dec" x1="59.31" x2="33.2" y1="37.42" y2="11.32" gradientUnits="userSpaceOnUse"><stop offset="0" stop-color="#c2cece" stop-opacity="0"/><stop offset=".18" stop-color="#afbcbc" stop-opacity=".18"/><stop offset="1" stop-color="#5b6a6a"/></linearGradient><linearGradient id="p4ded" x1="12.11" x2="44.26" y1="15.85" y2="53.35" gradientUnits="userSpaceOnUse"><stop offset="0" stop-color="#00a6f9"/><stop offset="1" stop-color="#0071e2"/></linearGradient><linearGradient id="p4dee" x1="5.33" x2="5.33" y1="38.08" y2="41.73" gradientUnits="userSpaceOnUse"><stop offset="0" stop-color="#0086eb"/><stop offset="1" stop-color="#0071e2"/></linearGradient><linearGradient id="p4def" x1="42.23" x2="42.23" y1="38.08" y2="41.73" gradientUnits="userSpaceOnUse"><stop offset="0" stop-color="#0086eb"/><stop offset="1" stop-color="#0071e2"/></linearGradient><linearGradient id="p4deg" x1="15.25" x2="11.66" y1="28.81" y2="25.22" gradientUnits="userSpaceOnUse"><stop offset="0" stop-opacity="0"/><stop offset="1" stop-color="#0046e2"/></linearGradient><linearGradient id="p4deh" x1="13.97" x2="12.95" y1="27.53" y2="26.52" gradientUnits="userSpaceOnUse"><stop offset="0" stop-color="#97aaaa"/><stop offset="1" stop-color="#e8efee"/></linearGradient><linearGradient id="p4dei" x1="14.48" x2="11.5" y1="28.05" y2="25.06" gradientUnits="userSpaceOnUse"><stop offset="0" stop-color="#fff"/><stop offset=".03" stop-color="#c2cece"/><stop offset=".33" stop-color="#c7d2d2"/><stop offset=".69" stop-color="#d5dfde"/><stop offset="1" stop-color="#e8efee"/></linearGradient><linearGradient id="p4dej" x1="24.46" x2="20.87" y1="28.81" y2="25.22" gradientUnits="userSpaceOnUse"><stop offset="0" stop-opacity="0"/><stop offset="1" stop-color="#0046e2"/></linearGradient><linearGradient id="p4dek" x1="23.19" x2="22.17" y1="27.53" y2="26.52" gradientUnits="userSpaceOnUse"><stop offset="0" stop-color="#97aaaa"/><stop offset="1" stop-color="#e8efee"/></linearGradient><linearGradient id="p4del" x1="23.7" x2="20.72" y1="28.05" y2="25.06" gradientUnits="userSpaceOnUse"><stop offset="0" stop-color="#fff"/><stop offset=".03" stop-color="#c2cece"/><stop offset=".33" stop-color="#c7d2d2"/><stop offset=".69" stop-color="#d5dfde"/><stop offset="1" stop-color="#e8efee"/></linearGradient><linearGradient id="p4dem" x1="33.67" x2="30.08" y1="28.81" y2="25.22" gradientUnits="userSpaceOnUse"><stop offset="0" stop-opacity="0"/><stop offset="1" stop-color="#0046e2"/></linearGradient><linearGradient id="p4den" x1="32.4" x2="31.38" y1="27.53" y2="26.52" gradientUnits="userSpaceOnUse"><stop offset="0" stop-color="#97aaaa"/><stop offset="1" stop-color="#e8efee"/></linearGradient><linearGradient id="p4deo" x1="32.91" x2="29.93" y1="28.05" y2="25.06" gradientUnits="userSpaceOnUse"><stop offset="0" stop-color="#fff"/><stop offset=".03" stop-color="#c2cece"/><stop offset=".33" stop-color="#c7d2d2"/><stop offset=".69" stop-color="#d5dfde"/><stop offset="1" stop-color="#e8efee"/></linearGradient></defs><g><g><g><path fill="url(#p4dea)" d="M49.085 31.397H9.56a2.11 2.11 0 0 1-2.11-2.11V2.14A2.11 2.11 0 0 1 9.56.03h39.525a2.11 2.11 0 0 1 2.11 2.11v27.147a2.11 2.11 0 0 1-2.11 2.11z"/></g><g><path fill="url(#p4deb)" d="M51.195 27.74v1.547a2.11 2.11 0 0 1-2.11 2.11H9.56a2.11 2.11 0 0 1-2.11-2.11V27.74z"/></g><g><path fill="url(#p4dec)" d="M43.18 11.21v20.185h5.908a2.11 2.11 0 0 0 2.11-2.11V19.228z"/></g><g><path fill="url(#p4ded)" d="M41.635 10.37H2.11A2.11 2.11 0 0 0 0 12.48v27.147a2.11 2.11 0 0 0 2.11 2.11h3.516v7.249c0 .88 1.065 1.322 1.688.699l7.947-7.948h26.374a2.11 2.11 0 0 0 2.11-2.11V12.48a2.11 2.11 0 0 0-2.11-2.11z"/></g><g><g><path fill="url(#p4dee)" d="M0 38.08h5.626v3.657H2.11A2.11 2.11 0 0 1 0 39.627z"/></g><g><path fill="url(#p4def)" d="M43.744 38.08v1.547a2.11 2.11 0 0 1-2.11 2.11H15.26l3.657-3.657h24.826z"/></g></g><g><path fill="url(#p4deg)" d="M12.832 28.934a2.532 2.532 0 1 0 0-5.064 2.532 2.532 0 0 0 0 5.064z"/></g><g><path fill="url(#p4deh)" d="M12.482 28.584a2.532 2.532 0 1 0 0-5.064 2.532 2.532 0 0 0 0 5.064z"/></g><g><path fill="url(#p4dei)" d="M12.447 28.513a2.497 2.497 0 1 0 0-4.993 2.497 2.497 0 0 0 0 4.993z"/></g><g><path fill="url(#p4dej)" d="M22.052 28.934a2.532 2.532 0 1 0 0-5.064 2.532 2.532 0 0 0 0 5.064z"/></g><g><path fill="url(#p4dek)" d="M21.702 28.584a2.532 2.532 0 1 0 0-5.064 2.532 2.532 0 0 0 0 5.064z"/></g><g><path fill="url(#p4del)" d="M21.667 28.513a2.497 2.497 0 1 0 0-4.993 2.497 2.497 0 0 0 0 4.993z"/></g><g><path fill="url(#p4dem)" d="M31.262 28.934a2.532 2.532 0 1 0 0-5.064 2.532 2.532 0 0 0 0 5.064z"/></g><g><path fill="url(#p4den)" d="M30.912 28.584a2.532 2.532 0 1 0 0-5.064 2.532 2.532 0 0 0 0 5.064z"/></g><g><path fill="url(#p4deo)" d="M30.877 28.513a2.497 2.497 0 1 0 0-4.993 2.497 2.497 0 0 0 0 4.993z"/></g></g></g></svg>